<?xml version="1.0" encoding="UTF-8" standalone="no"?><!DOCTYPE svg PUBLIC "-//W3C//DTD SVG 1.1//EN" "http://www.w3.org/Graphics/SVG/1.1/DTD/svg11.dtd"><svg width="100%" height="100%" viewBox="0 0 8892 8892" version="1.1" xmlns="http://www.w3.org/2000/svg" xmlns:xlink="http://www.w3.org/1999/xlink" xml:space="preserve" xmlns:serif="http://www.serif.com/" style="fill-rule:evenodd;clip-rule:evenodd;stroke-linejoin:round;stroke-miterlimit:2;"><g id="Ebene_3"><path d="M7463.93,2182.26l-6036.2,-0c-75.258,-0 -137.186,61.928 -137.186,137.186l-0,1097.49c-0,75.258 61.928,137.186 137.186,137.186l411.559,0l-0,3018.1c-0,75.258 61.928,137.186 137.186,137.186l4938.71,-0c75.259,-0 137.187,-61.928 137.187,-137.186l-0,-3018.1l411.559,0c75.258,0 137.186,-61.928 137.186,-137.186l0,-1097.49c0,-75.258 -61.928,-137.186 -137.186,-137.186Zm-685.932,4252.78l-4664.34,0l-0,-2880.91l4664.34,0l0,2880.91Zm548.745,-3155.29l-5761.83,0l0,-823.118l5761.83,0l0,823.118Zm-548.745,-1097.49l-4664.34,-0l4664.34,-0Z" style="fill:#1b1a1e;fill-rule:nonzero;"/><path d="M3485.53,4651.61l1920.61,-0c225.774,-0 411.559,-185.785 411.559,-411.559c-0,-225.775 -185.785,-411.559 -411.559,-411.559l-1920.61,-0c-225.775,-0 -411.559,185.784 -411.559,411.559c-0,225.774 185.784,411.559 411.559,411.559Zm-0,-548.746l1920.61,0c75.258,0 137.186,61.929 137.186,137.187c0,75.258 -61.928,137.186 -137.186,137.186l-1920.61,0c-75.258,0 -137.186,-61.928 -137.186,-137.186c-0,-75.258 61.928,-137.187 137.186,-137.187Z" style="fill:#1b1a1e;fill-rule:nonzero;"/></g></svg>