<?xml version="1.0" encoding="UTF-8" standalone="no"?>
<!DOCTYPE svg PUBLIC "-//W3C//DTD SVG 1.1//EN" "http://www.w3.org/Graphics/SVG/1.1/DTD/svg11.dtd">
<svg width="100%" height="100%" viewBox="0 0 512 512" version="1.1" xmlns="http://www.w3.org/2000/svg" xmlns:xlink="http://www.w3.org/1999/xlink" xml:space="preserve" xmlns:serif="http://www.serif.com/" style="fill-rule:evenodd;clip-rule:evenodd;stroke-miterlimit:10;">
    <path d="M195.8,150.5L129.9,150.5C126,150.5 122.8,153.7 122.8,157.6L122.8,223.5C122.8,227.4 126,230.6 129.9,230.6L195.8,230.6C199.7,230.6 202.9,227.4 202.9,223.5L202.9,157.6C202.8,153.7 199.7,150.5 195.8,150.5Z" style="fill:none;fill-rule:nonzero;stroke:rgb(29,29,27);stroke-width:18px;"/>
    <path d="M195.8,281.5L129.9,281.5C126,281.5 122.8,284.7 122.8,288.6L122.8,354.5C122.8,358.4 126,361.6 129.9,361.6L195.8,361.6C199.7,361.6 202.9,358.4 202.9,354.5L202.9,288.6C202.8,284.7 199.7,281.5 195.8,281.5Z" style="fill:none;fill-rule:nonzero;stroke:rgb(29,29,27);stroke-width:18px;"/>
    <path d="M248.7,175.3L389.2,175.3" style="fill:none;fill-rule:nonzero;stroke:rgb(29,29,27);stroke-width:18px;stroke-linecap:round;"/>
    <path d="M248.7,210.8L344.7,210.8" style="fill:none;fill-rule:nonzero;stroke:rgb(29,29,27);stroke-width:18px;stroke-linecap:round;"/>
    <path d="M248.7,303.7L389.2,303.7" style="fill:none;fill-rule:nonzero;stroke:rgb(29,29,27);stroke-width:18px;stroke-linecap:round;"/>
    <path d="M248.7,339.3L344.7,339.3" style="fill:none;fill-rule:nonzero;stroke:rgb(29,29,27);stroke-width:18px;stroke-linecap:round;"/>
</svg>
