<?xml version="1.0" encoding="utf-8"?>
<!-- Generator: Adobe Illustrator 25.0.0, SVG Export Plug-In . SVG Version: 6.00 Build 0)  -->
<svg version="1.1" id="Ebene_1" xmlns="http://www.w3.org/2000/svg" xmlns:xlink="http://www.w3.org/1999/xlink" x="0px" y="0px"
	 viewBox="0 0 512 512" style="enable-background:new 0 0 512 512;" xml:space="preserve">
<style type="text/css">
	.st0{display:none;}
	.st1{display:inline;fill:#E62C2A;stroke:#000000;stroke-width:16;stroke-miterlimit:10;}
	.st2{display:inline;fill:none;stroke:#010202;stroke-width:60;stroke-linecap:round;stroke-miterlimit:10;}
	.st3{display:inline;fill:none;stroke:#010202;stroke-width:40;stroke-linecap:round;stroke-miterlimit:10;}
	.st4{display:inline;}
	.st5{display:inline;fill:none;stroke:#000000;stroke-width:20;stroke-miterlimit:10;}
	.st6{fill:#1D1D1B;}
	.st7{fill:none;}
	.st8{enable-background:new    ;}
	.st9{fill:#4690AA;}
</style>
<g id="Ebene_1_1_" class="st0">
	<rect x="95.9" y="95.9" class="st1" width="320.2" height="320.2"/>
</g>
<g id="Delete" class="st0">
	<line class="st2" x1="138.1" y1="373.9" x2="373.9" y2="138.1"/>
	<line class="st2" x1="138.1" y1="138.1" x2="373.9" y2="373.9"/>
</g>
<g id="Ebene_4" class="st0">
	<line class="st3" x1="138.6" y1="373.4" x2="373.4" y2="138.6"/>
	<line class="st3" x1="138.6" y1="138.6" x2="373.4" y2="373.4"/>
</g>
<g id="Ebene_3" class="st0">
	<g class="st4">
		<path d="M407,99.8l7,12.2c-45.9,32.4-88.4,73.4-127.5,123.1c-39.1,49.6-67.4,98.2-84.8,145.9l-10.3,6.8
			c-8.9,5.8-16.6,11.6-23,17.4c-1.1-5.6-4.1-14.7-9.2-27.2l-5.4-13.4c-11.7-29-21.6-49.2-29.7-60.7s-16.8-17.7-26.2-18.7
			c12.7-11.6,23.7-17.4,33.1-17.4c13,0,27.2,17.5,42.8,52.4l8.5,18.8c27.7-49.6,61.2-95.4,100.4-137.2
			C321.9,159.9,363.3,125.9,407,99.8z"/>
	</g>
	<circle class="st5" cx="256" cy="256" r="243.7"/>
</g>
<g>
	<path class="st6" d="M160.1,254.9V122.6c0-4.9,3.9-8.7,8.7-8.7h69.3c2.4,0,4.3,1.8,4.3,4.3v15.2c0,2.4-1.8,4.3-4.3,4.3h-53.3v38
		h39.6c2.4,0,4.3,1.8,4.3,4.3v14.4c0,2.4-1.8,4.3-4.3,4.3h-39.6V255c0,2.4-1.8,4.3-4.3,4.3h-16.3
		C161.9,259.2,160.1,257.4,160.1,254.9z"/>
	<path class="st6" d="M262.9,248.2c-1.2-0.8-2-3.3-1.2-4.9l7.1-12.8c0.8-1.6,2.4-2.4,3.9-2.4c1,0,1.6,0,3,0.8
		c12,7.5,21.1,9.6,28.5,9.6c14.6,0,23.2-7.9,23.2-18.7c0-13-12.8-16.7-31.9-24.6c-12-5.1-32.7-14.8-32.7-41.9
		c0-25,17.9-42.1,44.1-42.1c14.2,0,29.3,4.9,40.7,13.4c1.2,0.8,2,3.3,1.2,4.9l-6.7,12.8c-0.8,1.6-2.4,2.4-3.9,2.4c-1,0-1.6,0-3-0.8
		c-11.6-7.5-21.8-9.6-28.1-9.6c-12.4,0-19.7,7.5-19.7,17.7c0,11.2,8.5,17.1,24.4,23.6c16.3,6.7,40.2,14.2,40.2,42.7
		c0,25.4-19.3,43.3-47.6,43.3C289.3,261.6,274.9,256.6,262.9,248.2z"/>
</g>
<rect x="122.4" y="292.5" class="st7" width="376.7" height="181.4"/>
<g class="st8">
	<path class="st9" d="M128.3,380.8V371c0-19.5,7.1-23.7,28.5-36.2c6-3.5,8.4-7.6,8.4-12.6c0-6.8-4.6-11.2-12.7-11.2
		c-4.3,0-9.6,1.3-15.2,4.6c-0.5,0.2-1.1,0.4-1.6,0.4c-0.9,0-1.7-0.4-2.2-1.3l-4-7.3c-0.2-0.4-0.4-0.9-0.4-1.2c0-0.9,0.4-1.6,1.1-2.1
		c6.3-4.3,14.9-7,23.7-7c16.3,0,26,9.5,26,24.6c0,11.6-5.6,18.3-17.8,26.1c-10.1,6.5-19.4,10-19.4,20.4v3.5h31.7
		c1.5,0,2.6,1.1,2.6,2.6v9c0,1.5-1.1,2.6-2.6,2.6h-40.9C130.6,385.9,128.3,383.6,128.3,380.8z"/>
	<path class="st9" d="M193,342.2c0-29.5,10.6-45.1,30.9-45.1s30.7,15.5,30.7,45.1c0,29.9-10.5,45.3-30.7,45.3S193,372,193,342.2z
		 M239.4,342.2c0-22.4-4.4-31.1-15.7-31.1c-11.2,0-15.6,8.9-15.6,31.6c0,22,4.5,30.9,15.7,30.9C235,373.6,239.4,364.8,239.4,342.2z"
		/>
	<path class="st9" d="M267.6,380.8V371c0-19.5,7.1-23.7,28.5-36.2c6-3.5,8.4-7.6,8.4-12.6c0-6.8-4.6-11.2-12.7-11.2
		c-4.3,0-9.6,1.3-15.2,4.6c-0.5,0.2-1.1,0.4-1.6,0.4c-0.9,0-1.7-0.4-2.2-1.3l-4-7.3c-0.2-0.4-0.4-0.9-0.4-1.2c0-0.9,0.4-1.6,1.1-2.1
		c6.3-4.3,14.9-7,23.7-7c16.3,0,26,9.5,26,24.6c0,11.6-5.6,18.3-17.8,26.1c-10.1,6.5-19.4,10-19.4,20.4v3.5h31.7
		c1.5,0,2.6,1.1,2.6,2.6v9c0,1.5-1.1,2.6-2.6,2.6h-40.9C269.9,385.9,267.6,383.6,267.6,380.8z"/>
	<path class="st9" d="M330.7,383.3v-8.7c0-1.5,1.1-2.6,2.6-2.6H347v-54.3h-10.2c-2,0-3.5-1.6-3.5-3.5v-5.9l19.8-10.2h4.8
		c2,0,3.5,1.6,3.5,3.5v70.4h13.8c1.5,0,2.6,1.1,2.6,2.6v8.7c0,1.5-1.1,2.6-2.6,2.6h-41.8C331.8,385.9,330.7,384.8,330.7,383.3z"/>
</g>
</svg>
