<?xml version="1.0" encoding="UTF-8" standalone="no"?><!DOCTYPE svg PUBLIC "-//W3C//DTD SVG 1.1//EN" "http://www.w3.org/Graphics/SVG/1.1/DTD/svg11.dtd"><svg width="100%" height="100%" viewBox="0 0 2134 2134" version="1.1" xmlns="http://www.w3.org/2000/svg" xmlns:xlink="http://www.w3.org/1999/xlink" xml:space="preserve" xmlns:serif="http://www.serif.com/" style="fill-rule:evenodd;clip-rule:evenodd;stroke-linejoin:round;stroke-miterlimit:2;"><path d="M769.062,1347.47c199.927,199.927 524.557,199.927 724.484,-0c0,-0 454.798,-454.798 454.798,-454.798c199.927,-199.927 199.927,-524.558 -0,-724.485c-199.927,-199.927 -524.558,-199.927 -724.485,0c0,0 -454.797,454.798 -454.797,454.798c-0,-0 247.47,-99.174 464.933,6.471l225.566,-225.566c69.84,-69.84 183.241,-69.84 253.081,-0c69.839,69.839 69.839,183.24 -0,253.08c-0,-0 -454.798,454.797 -454.798,454.797c-69.839,69.84 -183.241,69.84 -253.08,0l-235.702,235.703Z"/><path d="M1364.27,785.863c-199.927,-199.927 -524.558,-199.927 -724.485,-0c-0,-0 -454.798,454.797 -454.798,454.797c-199.927,199.927 -199.927,524.558 0,724.485c199.927,199.927 524.558,199.927 724.485,0c0,0 454.798,-454.797 454.798,-454.797c-0,-0 -247.471,99.173 -464.933,-6.472l-225.567,225.567c-69.839,69.839 -183.241,69.839 -253.08,-0c-69.84,-69.84 -69.84,-183.241 -0,-253.081c-0,0 454.797,-454.797 454.797,-454.797c69.84,-69.84 183.241,-69.84 253.08,-0l235.703,-235.702Z"/></svg>