<?xml version="1.0" encoding="utf-8"?>
<!-- Generator: Adobe Illustrator 25.0.0, SVG Export Plug-In . SVG Version: 6.00 Build 0)  -->
<svg version="1.1" id="Ebene_1" xmlns="http://www.w3.org/2000/svg" xmlns:xlink="http://www.w3.org/1999/xlink" x="0px" y="0px"
	 viewBox="0 0 512 512" style="enable-background:new 0 0 512 512;" xml:space="preserve">
<style type="text/css">
	.st0{display:none;}
	.st1{display:inline;fill:#E62C2A;stroke:#000000;stroke-width:16;stroke-miterlimit:10;}
	.st2{display:inline;fill:none;stroke:#010202;stroke-width:60;stroke-linecap:round;stroke-miterlimit:10;}
	.st3{display:inline;fill:none;stroke:#010202;stroke-width:40;stroke-linecap:round;stroke-miterlimit:10;}
	.st4{display:inline;}
	.st5{display:inline;fill:none;stroke:#000000;stroke-width:20;stroke-miterlimit:10;}
	.st6{fill:none;stroke:#1D1D1B;stroke-width:18;stroke-miterlimit:10;}
	.st7{fill:none;stroke:#1D1D1B;stroke-width:18;stroke-linecap:round;stroke-miterlimit:10;}
</style>
<g id="Ebene_1_1_" class="st0">
	<rect x="95.9" y="95.9" class="st1" width="320.2" height="320.2"/>
</g>
<g id="Delete" class="st0">
	<line class="st2" x1="138.1" y1="373.9" x2="373.9" y2="138.1"/>
	<line class="st2" x1="138.1" y1="138.1" x2="373.9" y2="373.9"/>
</g>
<g id="Ebene_4" class="st0">
	<line class="st3" x1="138.6" y1="373.4" x2="373.4" y2="138.6"/>
	<line class="st3" x1="138.6" y1="138.6" x2="373.4" y2="373.4"/>
</g>
<g id="Ebene_3" class="st0">
	<g class="st4">
		<path d="M407,99.8l7,12.2c-45.9,32.4-88.4,73.4-127.5,123.1c-39.1,49.6-67.4,98.2-84.8,145.9l-10.3,6.8
			c-8.9,5.8-16.6,11.6-23,17.4c-1.1-5.6-4.1-14.7-9.2-27.2l-5.4-13.4c-11.7-29-21.6-49.2-29.7-60.7c-8.1-11.5-16.8-17.7-26.2-18.7
			c12.7-11.6,23.7-17.4,33.1-17.4c13,0,27.2,17.5,42.8,52.4l8.5,18.8c27.7-49.6,61.2-95.4,100.4-137.2
			C321.9,159.9,363.3,125.9,407,99.8z"/>
	</g>
	<circle class="st5" cx="256" cy="256" r="243.7"/>
</g>
<path class="st6" d="M195.8,150.5h-65.9c-3.9,0-7.1,3.2-7.1,7.1v65.9c0,3.9,3.2,7.1,7.1,7.1h65.9c3.9,0,7.1-3.2,7.1-7.1v-65.9
	C202.8,153.7,199.7,150.5,195.8,150.5z"/>
<path class="st6" d="M195.8,281.5h-65.9c-3.9,0-7.1,3.2-7.1,7.1v65.9c0,3.9,3.2,7.1,7.1,7.1h65.9c3.9,0,7.1-3.2,7.1-7.1v-65.9
	C202.8,284.7,199.7,281.5,195.8,281.5z"/>
<line class="st7" x1="248.7" y1="175.3" x2="389.2" y2="175.3"/>
<line class="st7" x1="248.7" y1="210.8" x2="344.7" y2="210.8"/>
<line class="st7" x1="248.7" y1="303.7" x2="389.2" y2="303.7"/>
<line class="st7" x1="248.7" y1="339.3" x2="344.7" y2="339.3"/>
</svg>
