<?xml version="1.0" encoding="UTF-8" standalone="no"?><!DOCTYPE svg PUBLIC "-//W3C//DTD SVG 1.1//EN" "http://www.w3.org/Graphics/SVG/1.1/DTD/svg11.dtd"><svg width="100%" height="100%" viewBox="0 0 2134 2134" version="1.1" xmlns="http://www.w3.org/2000/svg" xmlns:xlink="http://www.w3.org/1999/xlink" xml:space="preserve" xmlns:serif="http://www.serif.com/" style="fill-rule:evenodd;clip-rule:evenodd;stroke-linejoin:round;stroke-miterlimit:2;"><g id="Ebene_3"><g><path d="M1695.83,415.833l29.167,50.834c-191.25,135 -368.333,305.833 -531.25,512.916c-162.917,206.667 -280.833,409.167 -353.333,607.917l-42.917,28.333c-37.083,24.167 -69.167,48.334 -95.833,72.5c-4.584,-23.333 -17.084,-61.25 -38.334,-113.333l-22.5,-55.833c-48.75,-120.834 -90,-205 -123.75,-252.917c-33.75,-47.917 -70,-73.75 -109.166,-77.917c52.916,-48.333 98.75,-72.5 137.916,-72.5c54.167,0 113.334,72.917 178.334,218.334l35.416,78.333c115.417,-206.667 255,-397.5 418.334,-571.667c163.333,-174.583 335.833,-316.25 517.916,-425Z" style="fill-rule:nonzero;"/></g></g></svg>