<?xml version="1.0" encoding="utf-8"?>
<!-- Generator: Adobe Illustrator 25.0.0, SVG Export Plug-In . SVG Version: 6.00 Build 0)  -->
<svg version="1.1" id="Ebene_1" xmlns="http://www.w3.org/2000/svg" xmlns:xlink="http://www.w3.org/1999/xlink" x="0px" y="0px"
	 viewBox="0 0 512 512" style="enable-background:new 0 0 512 512;" xml:space="preserve">
<style type="text/css">
	.st0{display:none;}
	.st1{display:inline;fill:#E62C2A;stroke:#000000;stroke-width:16;stroke-miterlimit:10;}
	.st2{display:inline;fill:none;stroke:#010202;stroke-width:60;stroke-linecap:round;stroke-miterlimit:10;}
	.st3{display:inline;fill:none;stroke:#010202;stroke-width:40;stroke-linecap:round;stroke-miterlimit:10;}
	.st4{display:inline;}
	.st5{display:inline;fill:none;stroke:#000000;stroke-width:20;stroke-miterlimit:10;}
	.st6{fill:#1D1D1B;}
</style>
<g id="Ebene_1_1_" class="st0">
	<rect x="95.9" y="95.9" class="st1" width="320.2" height="320.2"/>
</g>
<g id="Delete" class="st0">
	<line class="st2" x1="138.1" y1="373.9" x2="373.9" y2="138.1"/>
	<line class="st2" x1="138.1" y1="138.1" x2="373.9" y2="373.9"/>
</g>
<g id="Ebene_4" class="st0">
	<line class="st3" x1="138.6" y1="373.4" x2="373.4" y2="138.6"/>
	<line class="st3" x1="138.6" y1="138.6" x2="373.4" y2="373.4"/>
</g>
<g id="Ebene_3" class="st0">
	<g class="st4">
		<path d="M407,99.8l7,12.2c-45.9,32.4-88.4,73.4-127.5,123.1c-39.1,49.6-67.4,98.2-84.8,145.9l-10.3,6.8
			c-8.9,5.8-16.6,11.6-23,17.4c-1.1-5.6-4.1-14.7-9.2-27.2l-5.4-13.4c-11.7-29-21.6-49.2-29.7-60.7s-16.8-17.7-26.2-18.7
			c12.7-11.6,23.7-17.4,33.1-17.4c13,0,27.2,17.5,42.8,52.4l8.5,18.8c27.7-49.6,61.2-95.4,100.4-137.2
			C321.9,159.9,363.3,125.9,407,99.8z"/>
	</g>
	<circle class="st5" cx="256" cy="256" r="243.7"/>
</g>
<g>
	<g>
		<path class="st6" d="M420.2,191.4L352,123.6c-1.1-1.4-2.8-2.1-4.6-2.1h-48.5c-3.2,0-6,2.5-6.3,6c-1,16.5-15.1,29.5-31.6,29.5
			s-30.6-13-31.6-29.5c-0.3-3.2-2.8-6-6.3-6h-48.1c-1.4,0-3.2,0.7-4.6,1.8l-68.5,68.2c-2.5,2.5-2.5,6.3,0,8.8l53.1,53.1
			c2.5,2.5,6.3,2.5,8.8,0l4.9-4.9v125.4c0,3.5,2.8,6.3,6.3,6.3h172.5c3.5,0,6.3-2.8,6.3-6.3V248.7l4.6,4.6c2.5,2.5,6.3,2.5,8.8,0
			l53.1-53.1C422.6,197.7,422.6,193.9,420.2,191.4z M362.5,239.9L351.6,229c-1.8-1.8-4.6-2.5-7-1.4c-2.5,1-3.9,3.2-3.9,6v134.2
			H181.2V233.2c0-2.5-1.4-4.9-3.9-6c-2.5-1.1-4.9-0.4-7,1.4l-11.2,11.2L115.2,196l61.8-61.8h40.4c4.6,20,22.5,35.1,43.6,35.1
			s39.3-15.1,43.2-35.5h40.4l61.8,61.8L362.5,239.9z"/>
		<path class="st6" d="M406.5,195.6l-43.9,44.3L351.6,229c-1.8-1.8-4.6-2.5-7-1.4c-2.5,1-3.9,3.2-3.9,6v134.2H181.2V233.2
			c0-2.5-1.4-4.9-3.9-6c-2.5-1.1-4.9-0.4-7,1.4l-11.2,11.2L115.2,196l61.8-61.8h40.4c4.6,20,22.5,35.1,43.6,35.1
			s39.3-15.1,43.2-35.5h40.4L406.5,195.6z"/>
	</g>
</g>
</svg>
