<?xml version="1.0" encoding="UTF-8" standalone="no"?><!DOCTYPE svg PUBLIC "-//W3C//DTD SVG 1.1//EN" "http://www.w3.org/Graphics/SVG/1.1/DTD/svg11.dtd"><svg width="100%" height="100%" viewBox="0 0 2134 2134" version="1.1" xmlns="http://www.w3.org/2000/svg" xmlns:xlink="http://www.w3.org/1999/xlink" xml:space="preserve" xmlns:serif="http://www.serif.com/" style="fill-rule:evenodd;clip-rule:evenodd;stroke-linecap:round;stroke-linejoin:round;stroke-miterlimit:1.5;"><g><path d="M1121.36,684.173l147.518,158.995l-0,819.642l-735.459,0l0,-978.637l587.941,-0Z" style="fill:#ebebeb;stroke:#000;stroke-width:66.67px;"/><path d="M1218.2,578.226l147.518,158.995l-0,819.642l-735.458,0l-0,-978.637l587.94,-0Z" style="fill:#ebebeb;stroke:#000;stroke-width:66.67px;"/><path d="M1327.49,470.523l147.518,158.995l-0,819.642l-735.458,0l-0,-978.637l587.94,0Z" style="fill:#ebebeb;stroke:#000;stroke-width:66.67px;"/><path d="M1327.49,470.523l1.525,157.979l145.993,1.016" style="fill:none;stroke:#000;stroke-width:66.67px;"/></g><g><g><path d="M1168.33,622.074l-305.212,0c-16.856,0 -30.522,13.666 -30.522,30.522c0,16.856 13.666,30.522 30.522,30.522l305.212,-0c16.856,-0 30.522,-13.666 30.522,-30.522c0,-16.856 -13.666,-30.522 -30.522,-30.522Z" style="fill-rule:nonzero;"/></g></g><g><g><path d="M1351.45,807.236l-488.339,-0c-16.856,-0 -30.522,13.665 -30.522,30.522c0,16.856 13.666,30.521 30.522,30.521l488.339,0c16.856,0 30.522,-13.665 30.522,-30.521c-0,-16.857 -13.666,-30.522 -30.522,-30.522Z" style="fill-rule:nonzero;"/></g></g><g><g><path d="M1351.45,990.365l-488.339,-0c-16.856,-0 -30.522,13.665 -30.522,30.521c0,16.857 13.666,30.522 30.522,30.522l488.339,0c16.856,0 30.522,-13.665 30.522,-30.522c-0,-16.858 -13.666,-30.521 -30.522,-30.521Z" style="fill-rule:nonzero;"/></g></g><g><g><path d="M1336.19,1173.49l-457.817,0c-25.284,0 -45.783,13.666 -45.783,30.522c0,16.856 20.499,30.522 45.783,30.522l457.817,0c25.284,0 45.783,-13.666 45.783,-30.522c-0,-16.856 -20.499,-30.522 -45.783,-30.522Z" style="fill-rule:nonzero;"/></g></g></svg>