<?xml version="1.0" encoding="UTF-8" standalone="no"?>
<!DOCTYPE svg PUBLIC "-//W3C//DTD SVG 1.1//EN" "http://www.w3.org/Graphics/SVG/1.1/DTD/svg11.dtd">
<svg width="100%" height="100%" viewBox="0 0 512 512" version="1.1" xmlns="http://www.w3.org/2000/svg" xmlns:xlink="http://www.w3.org/1999/xlink" xml:space="preserve" xmlns:serif="http://www.serif.com/" style="fill-rule:evenodd;clip-rule:evenodd;stroke-linecap:round;stroke-linejoin:round;stroke-miterlimit:1.5;">
    <g>
        <g transform="matrix(8.84616,0,0,1.15909,-2103,-48.9187)">
            <path d="M266.669,109.672L288.365,403.401L244.973,403.401L266.669,109.672Z" style="fill:rgb(255,232,0);stroke:black;stroke-width:2.22px;"/>
        </g>
        <g transform="matrix(248.37,0,0,248.37,213.461,369.884)">
            <path d="M0.23,-0.645C0.23,-0.629 0.225,-0.574 0.214,-0.481C0.204,-0.388 0.194,-0.298 0.186,-0.211L0.148,-0.211C0.141,-0.298 0.132,-0.388 0.121,-0.481C0.111,-0.574 0.105,-0.629 0.105,-0.645C0.105,-0.664 0.111,-0.679 0.123,-0.692C0.135,-0.705 0.15,-0.711 0.168,-0.711C0.186,-0.711 0.201,-0.705 0.213,-0.692C0.225,-0.68 0.23,-0.664 0.23,-0.645ZM0.235,-0.056C0.235,-0.038 0.228,-0.022 0.215,-0.01C0.202,0.003 0.186,0.01 0.168,0.01C0.15,0.01 0.134,0.003 0.121,-0.01C0.108,-0.022 0.101,-0.038 0.101,-0.056C0.101,-0.074 0.108,-0.09 0.121,-0.103C0.134,-0.116 0.15,-0.123 0.168,-0.123C0.186,-0.123 0.202,-0.116 0.215,-0.103C0.228,-0.09 0.235,-0.074 0.235,-0.056Z" style="fill-rule:nonzero;"/>
        </g>
    </g>
</svg>
