<?xml version="1.0" encoding="UTF-8" standalone="no"?><!DOCTYPE svg PUBLIC "-//W3C//DTD SVG 1.1//EN" "http://www.w3.org/Graphics/SVG/1.1/DTD/svg11.dtd"><svg width="100%" height="100%" viewBox="0 0 2134 2134" version="1.1" xmlns="http://www.w3.org/2000/svg" xmlns:xlink="http://www.w3.org/1999/xlink" xml:space="preserve" xmlns:serif="http://www.serif.com/" style="fill-rule:evenodd;clip-rule:evenodd;stroke-linecap:round;stroke-linejoin:round;stroke-miterlimit:1.5;"><g><path d="M1066.67,325.837l799.689,1418.58l-1599.38,-0l799.69,-1418.58Z" style="fill:#fff388;stroke:#000;stroke-width:104.17px;"/><path d="M1127.93,873.668c0,16.844 -5.558,73.439 -16.675,169.785c-11.117,96.345 -20.886,189.491 -29.308,279.436l-39.414,0c-7.412,-89.945 -16.591,-183.091 -27.54,-279.436c-10.948,-96.346 -16.422,-152.941 -16.422,-169.785c-0,-19.202 6.063,-35.372 18.191,-48.51c12.127,-13.138 27.623,-19.707 46.488,-19.707c18.865,0 34.362,6.485 46.489,19.455c12.127,12.969 18.191,29.223 18.191,48.762Zm4.548,609.405c-0,18.865 -6.822,34.951 -20.465,48.257c-13.644,13.307 -29.898,19.96 -48.763,19.96c-18.865,0 -35.119,-6.653 -48.762,-19.96c-13.644,-13.306 -20.465,-29.392 -20.465,-48.257c-0,-18.865 6.821,-35.119 20.465,-48.762c13.643,-13.644 29.897,-20.466 48.762,-20.466c18.865,0 35.119,6.822 48.763,20.466c13.643,13.643 20.465,29.897 20.465,48.762Z" style="fill-rule:nonzero;stroke:#000;stroke-width:41.67px;stroke-linecap:butt;stroke-miterlimit:2;"/></g></svg>