<?xml version="1.0" encoding="utf-8"?>
<!-- Generator: Adobe Illustrator 25.0.0, SVG Export Plug-In . SVG Version: 6.00 Build 0)  -->
<svg version="1.1" xmlns="http://www.w3.org/2000/svg" xmlns:xlink="http://www.w3.org/1999/xlink" x="0px" y="0px"
	 viewBox="0 0 512 512" style="enable-background:new 0 0 512 512;" xml:space="preserve">
<style type="text/css">
	.st0{display:none;}
	.st1{display:inline;fill:#E62C2A;stroke:#000000;stroke-width:16;stroke-miterlimit:10;}
	.st2{display:inline;fill:none;stroke:#010202;stroke-width:60;stroke-linecap:round;stroke-miterlimit:10;}
	.st3{display:inline;}
	.st4{display:inline;fill:none;stroke:#000000;stroke-width:20;stroke-miterlimit:10;}
	.st5{fill:#4AAE4D;}
	.st6{fill:#D4E1F4;}
	.st7{display:inline;fill:#2D4E9D;}
	.st8{display:inline;fill:none;stroke:#F2F2FA;stroke-width:60;stroke-linecap:round;stroke-miterlimit:10;}
</style>
<g id="Ebene_1" class="st0">
	<rect x="95.89" y="95.89" class="st1" width="320.22" height="320.22"/>
</g>
<g id="Delete" class="st0">
	<line class="st2" x1="138.06" y1="373.94" x2="373.94" y2="138.06"/>
	<line class="st2" x1="138.06" y1="138.06" x2="373.94" y2="373.94"/>
</g>
<g id="Ebene_3" class="st0">
	<g class="st3">
		<path d="M407.02,99.78l7.04,12.21c-45.88,32.41-88.39,73.44-127.53,123.07c-39.15,49.64-67.41,98.25-84.79,145.85l-10.33,6.81
			c-8.92,5.79-16.6,11.59-23.02,17.38c-1.1-5.64-4.15-14.72-9.16-27.24l-5.4-13.39c-11.74-28.97-21.65-49.2-29.71-60.71
			c-8.07-11.51-16.79-17.73-26.19-18.67c12.68-11.58,23.72-17.38,33.12-17.38c12.99,0,27.24,17.46,42.75,52.37l8.46,18.79
			c27.71-49.63,61.18-95.35,100.4-137.16C321.88,159.91,363.33,125.93,407.02,99.78z"/>
	</g>
	<circle class="st4" cx="256" cy="256" r="243.67"/>
</g>
<g id="Ebene_5" class="st0">
	<g class="st3">
		<path class="st5" d="M256,4.56c138.87,0,251.44,112.58,251.44,251.44S394.87,507.44,256,507.44S4.56,394.87,4.56,256l0,0
			C4.16,117.53,116.1,4.95,254.57,4.56C255.05,4.56,255.52,4.56,256,4.56z"/>
		<polygon class="st6" points="395.29,186.71 216.71,365.29 116.71,266 157.42,226 216.71,284.57 354.58,146.71 		"/>
	</g>
</g>
<g id="Ebene_6" class="st0">
	<circle class="st7" cx="256" cy="256" r="251.44"/>
	<line class="st8" x1="165.44" y1="346.56" x2="346.56" y2="165.44"/>
	<line class="st8" x1="165.44" y1="165.44" x2="346.56" y2="346.56"/>
</g>
<g id="Ebene_7">
	<g>
		<path d="M114.38,186.48h32.08c5.06-0.23,7.59,2.07,7.59,6.9v55.2h66.24c3.45,0,5.4,1.38,5.87,4.14v30.36
			c0,3.68-1.84,5.52-5.52,5.52h-66.58v66.58c-0.23,5.52-2.19,8.51-5.87,8.97L113,364.5c-4.6,0-6.9-2.64-6.9-7.94V288.6H41.93
			c-3.22,0.23-5.29-1.15-6.21-4.14v-31.74c0.69-3.22,2.64-4.6,5.86-4.14h64.52v-54.51C106.1,189.02,108.86,186.48,114.38,186.48z"/>
		<path d="M420.39,131.63c4.6-0.23,7.24,1.15,7.94,4.14l0.34,163.53h50.71c2.53,0.23,3.79,1.61,3.79,4.14v33.46
			c-0.92,2.76-3.57,4.14-7.93,4.14h-46.58v20.35c0,28.29-18.29,45.2-54.85,50.71c-1.61-0.23-2.42-1.5-2.42-3.79v-67.27h-88.32
			h-20.36c-6.44-0.69-9.43-3.11-8.97-7.25c-1.15-10.35,0.23-17.94,4.14-22.77l113.16-173.88c2.3-3.45,5.4-5.29,9.32-5.52H420.39z
			 M369.68,186.48c-2.3,4.14-17.6,29.21-45.88,75.21c-6.9,11.27-14.61,23.8-23.12,37.61h70.72l-0.35-112.82H369.68z"/>
	</g>
</g>
</svg>
